<?xml version="1.0" encoding="UTF-8" standalone="no"?>
<!-- Created with Inkscape (http://www.inkscape.org/) -->

<svg
   version="1.1"
   id="svg1"
   width="291"
   height="384"
   viewBox="0 0 291 384"
   xmlns="http://www.w3.org/2000/svg"
   xmlns:svg="http://www.w3.org/2000/svg">
  <defs
     id="defs1" />
  <g
     id="g1">
    <g
       id="g2">
      <path
         style="fill:#578bce;fill-opacity:1"
         d="m 89.330835,196.51472 c 3.03389,-0.78698 9.63119,-4.26906 16.185145,-8.54258 25.50459,-16.63032 39.24218,-16.26956 67.12609,1.76279 44.46068,28.75244 79.46556,-49.98388 40.00316,-89.978906 -16.92938,-17.157872 -20.82881,-17.912801 -92.5251,-17.912801 -63.903625,0 -60.141055,-0.413835 -63.994885,7.038636 -2.018,3.90239 -1.50707,92.310511 -0.23002,98.120991 2.33976,10.64576 21.45814,12.61879 33.43561,9.51187 z"
         id="path2" />
      <path
         style="fill:#04142a;fill-opacity:1"
         d="m 181.90347,301.82331 c 41.6006,-4.76646 65.84519,-47.02763 48.36723,-84.30978 -5.47228,-11.6729 -6.73431,-12.49483 -12.58769,-8.19805 -17.66906,12.97028 -33.37032,12.511 -53.7684,-1.57281 -20.5961,-14.22052 -32.13597,-14.15646 -53.33555,0.29608 -16.340365,11.13983 -33.159225,14.18977 -47.909085,7.54821 -10.24925,-4.61503 -7.40072,-6.98276 -7.80769,39.50959 -0.39654,45.3009 0.1444,44.3291 8.22784,46.67838 4.26242,1.23878 108.054915,1.28105 118.813345,0.0484 z"
         id="path1" />
    </g>
  </g>
</svg>
